<mxfile host="app.diagrams.net" modified="2024-01-17T01:55:21.237Z" agent="Mozilla/5.0 (Windows NT 10.0; Win64; x64) AppleWebKit/537.36 (KHTML, like Gecko) Chrome/120.0.0.0 Safari/537.36" etag="tib4XNWNGTpOBZGhI7Cc" version="22.1.18" type="device">
  <diagram name="Page-1" id="Lk_gDhp19YfYiFBo0yGb">
    <mxGraphModel dx="1434" dy="746" grid="1" gridSize="10" guides="1" tooltips="1" connect="1" arrows="1" fold="1" page="1" pageScale="1" pageWidth="850" pageHeight="1100" math="0" shadow="0">
      <root>
        <mxCell id="0" />
        <mxCell id="1" parent="0" />
        <mxCell id="Z5bhiDOluUvbOK4iLqt2-1" value="Unuse space" style="rounded=0;whiteSpace=wrap;html=1;" vertex="1" parent="1">
          <mxGeometry x="450" y="210" width="290" height="60" as="geometry" />
        </mxCell>
        <mxCell id="Z5bhiDOluUvbOK4iLqt2-2" value="A" style="rounded=0;whiteSpace=wrap;html=1;" vertex="1" parent="1">
          <mxGeometry x="20" y="210" width="120" height="60" as="geometry" />
        </mxCell>
        <mxCell id="Z5bhiDOluUvbOK4iLqt2-15" style="edgeStyle=orthogonalEdgeStyle;rounded=0;orthogonalLoop=1;jettySize=auto;html=1;exitX=0.25;exitY=0;exitDx=0;exitDy=0;entryX=0;entryY=0;entryDx=0;entryDy=0;curved=1;" edge="1" parent="1" source="Z5bhiDOluUvbOK4iLqt2-3" target="Z5bhiDOluUvbOK4iLqt2-2">
          <mxGeometry relative="1" as="geometry" />
        </mxCell>
        <mxCell id="Z5bhiDOluUvbOK4iLqt2-17" value="&lt;font style=&quot;font-size: 16px;&quot;&gt;next&lt;/font&gt;" style="edgeLabel;html=1;align=center;verticalAlign=middle;resizable=0;points=[];" vertex="1" connectable="0" parent="Z5bhiDOluUvbOK4iLqt2-15">
          <mxGeometry x="0.1099" y="2" relative="1" as="geometry">
            <mxPoint x="1" as="offset" />
          </mxGeometry>
        </mxCell>
        <mxCell id="Z5bhiDOluUvbOK4iLqt2-3" value="B" style="rounded=0;whiteSpace=wrap;html=1;" vertex="1" parent="1">
          <mxGeometry x="140" y="210" width="70" height="60" as="geometry" />
        </mxCell>
        <mxCell id="Z5bhiDOluUvbOK4iLqt2-14" style="edgeStyle=orthogonalEdgeStyle;rounded=0;orthogonalLoop=1;jettySize=auto;html=1;exitX=0.25;exitY=0;exitDx=0;exitDy=0;entryX=0;entryY=0;entryDx=0;entryDy=0;curved=1;" edge="1" parent="1" source="Z5bhiDOluUvbOK4iLqt2-4" target="Z5bhiDOluUvbOK4iLqt2-3">
          <mxGeometry relative="1" as="geometry" />
        </mxCell>
        <mxCell id="Z5bhiDOluUvbOK4iLqt2-16" value="&lt;font style=&quot;font-size: 16px;&quot;&gt;next&lt;/font&gt;" style="edgeLabel;html=1;align=center;verticalAlign=middle;resizable=0;points=[];" vertex="1" connectable="0" parent="Z5bhiDOluUvbOK4iLqt2-14">
          <mxGeometry x="0.1" relative="1" as="geometry">
            <mxPoint as="offset" />
          </mxGeometry>
        </mxCell>
        <mxCell id="Z5bhiDOluUvbOK4iLqt2-4" value="C" style="rounded=0;whiteSpace=wrap;html=1;" vertex="1" parent="1">
          <mxGeometry x="210" y="210" width="120" height="60" as="geometry" />
        </mxCell>
        <mxCell id="Z5bhiDOluUvbOK4iLqt2-5" value="&lt;font style=&quot;font-size: 16px;&quot;&gt;NextObjPtr&lt;/font&gt;" style="endArrow=classic;html=1;rounded=0;" edge="1" parent="1">
          <mxGeometry width="50" height="50" relative="1" as="geometry">
            <mxPoint x="450" y="150" as="sourcePoint" />
            <mxPoint x="450" y="210" as="targetPoint" />
          </mxGeometry>
        </mxCell>
        <mxCell id="Z5bhiDOluUvbOK4iLqt2-13" value="&lt;font style=&quot;font-size: 16px;&quot;&gt;next&lt;/font&gt;" style="edgeStyle=orthogonalEdgeStyle;rounded=0;orthogonalLoop=1;jettySize=auto;html=1;exitX=0.25;exitY=0;exitDx=0;exitDy=0;entryX=0;entryY=0;entryDx=0;entryDy=0;curved=1;" edge="1" parent="1" source="Z5bhiDOluUvbOK4iLqt2-6" target="Z5bhiDOluUvbOK4iLqt2-4">
          <mxGeometry relative="1" as="geometry" />
        </mxCell>
        <mxCell id="Z5bhiDOluUvbOK4iLqt2-6" value="D" style="rounded=0;whiteSpace=wrap;html=1;" vertex="1" parent="1">
          <mxGeometry x="330" y="210" width="120" height="60" as="geometry" />
        </mxCell>
        <mxCell id="Z5bhiDOluUvbOK4iLqt2-9" style="edgeStyle=orthogonalEdgeStyle;rounded=0;orthogonalLoop=1;jettySize=auto;html=1;entryX=0;entryY=1;entryDx=0;entryDy=0;curved=1;" edge="1" parent="1" source="Z5bhiDOluUvbOK4iLqt2-8" target="Z5bhiDOluUvbOK4iLqt2-6">
          <mxGeometry relative="1" as="geometry" />
        </mxCell>
        <mxCell id="Z5bhiDOluUvbOK4iLqt2-8" value="&lt;font style=&quot;font-size: 16px;&quot;&gt;allgc&lt;/font&gt;" style="rounded=0;whiteSpace=wrap;html=1;fillColor=#dae8fc;strokeColor=#6c8ebf;" vertex="1" parent="1">
          <mxGeometry x="290" y="360" width="90" height="40" as="geometry" />
        </mxCell>
      </root>
    </mxGraphModel>
  </diagram>
</mxfile>
